<?xml version="1.0" encoding="UTF-8" standalone="no"?>
<svg width="120px" height="120px" viewBox="0 0 120 120" version="1.1" 
    xmlns="http://www.w3.org/2000/svg" 
    xmlns:xlink="http://www.w3.org/1999/xlink">
    <g stroke="none" stroke-width="1" fill="none" fill-rule="evenodd">
        <path d="M120,108 C120,114.6 114.6,120 108,120 L12,120 C5.4,120 0,114.6 0,108 L0,12 C0,5.4 5.4,0 12,0 L108,0 C114.6,0 120,5.4 120,12 L120,108 L120,108 Z" id="Shape" fill="#2A739E"/>
        <path fill="#fff" d="m46.6 23.7l-2.1-2.1c-0.6-0.6-1.5-0.6-2.1 0l-13.2 13.2-5.3-5.3c-0.6-0.6-1.5-0.6-2.1 0l-2.1 2.1c-0.6 0.6-0.6 1.5 0 2.1l7.4 7.4c0.6 0.6 1.4 0.9 2.1 0.9 0.8 0 1.5-0.3 2.1-0.9l15.3-15.3c0.5-0.5 0.5-1.5 0-2.1z m30.4 14.3h-26c-1.1 0-2-0.9-2-2v-4c0-1.1 0.9-2 2-2h26c1.1 0 2 0.9 2 2v4c0 1.1-0.9 2-2 2z m0 18h-32c-1.1 0-2-0.9-2-2v-4c0-1.1 0.9-2 2-2h32c1.1 0 2 0.9 2 2v4c0 1.1-0.9 2-2 2z m-44 0h-4c-1.1 0-2-0.9-2-2v-4c0-1.1 0.9-2 2-2h4c1.1 0 2 0.9 2 2v4c0 1.1-0.9 2-2 2z m0 18h-4c-1.1 0-2-0.9-2-2v-4c0-1.1 0.9-2 2-2h4c1.1 0 2 0.9 2 2v4c0 1.1-0.9 2-2 2z m44 0h-32c-1.1 0-2-0.9-2-2v-4c0-1.1 0.9-2 2-2h32c1.1 0 2 0.9 2 2v4c0 1.1-0.9 2-2 2z"></path>
    </g>
</svg>